<?xml version="1.0" encoding="utf-8"?>
<!-- Generator: Adobe Illustrator 21.1.0, SVG Export Plug-In . SVG Version: 6.00 Build 0)  -->
<svg version="1.1" id="Layer_1" xmlns="http://www.w3.org/2000/svg" xmlns:xlink="http://www.w3.org/1999/xlink" x="0px" y="0px"
	 viewBox="0 0 30 30" enable-background="new 0 0 30 30" xml:space="preserve">
<g id="Layer_35">
	<path fill="#FFFFFF" d="M17.2,27c-0.2,0-0.4-0.1-0.6-0.2L6.5,20.6c-0.3-0.2-0.4-0.4-0.4-0.7v-8.8c0-0.3,0.2-0.6,0.4-0.7l10.1-6.2
		c0.3-0.2,0.7-0.2,1-0.1c0.3,0.1,0.6,0.5,0.6,0.8v21.2c0,0.3-0.2,0.6-0.5,0.8C17.5,27,17.3,27,17.2,27z M8.1,19.5l8.1,5V6.6l-8.1,5
		V19.5z"/>
	<path fill="#FFFFFF" d="M7.1,20.8H3c-1.7,0-3-1.2-3-2.7v-5.3c0-1.5,1.4-2.7,3-2.7h4c0.6,0,1,0.4,1,0.9v8.8
		C8.1,20.4,7.6,20.8,7.1,20.8z M3,12c-0.6,0-1,0.4-1,0.9v5.3C2,18.6,2.5,19,3,19h3V12H3z"/>
	<polygon fill="#FFFFFF" points="20,12.4 21.4,11.1 30,18.6 28.6,19.9 	"/>
	<polygon fill="#FFFFFF" points="20,18.6 28.6,11.1 30,12.4 21.4,19.9 	"/>
</g>
</svg>
