<?xml version="1.0" encoding="utf-8"?>
<!-- Generator: Adobe Illustrator 21.1.0, SVG Export Plug-In . SVG Version: 6.00 Build 0)  -->
<svg version="1.1" id="Layer_1" xmlns="http://www.w3.org/2000/svg" xmlns:xlink="http://www.w3.org/1999/xlink" x="0px" y="0px"
	 viewBox="0 0 30 30" enable-background="new 0 0 30 30" xml:space="preserve">
<g id="Layer_35">
	<path fill="#FFFFFF" d="M22.2,27c-0.2,0-0.4-0.1-0.6-0.2l-10.1-6.2c-0.3-0.2-0.4-0.4-0.4-0.7v-8.8c0-0.3,0.2-0.6,0.4-0.7l10.1-6.2
		c0.3-0.2,0.7-0.2,1-0.1c0.3,0.1,0.6,0.5,0.6,0.8v21.2c0,0.3-0.2,0.6-0.5,0.8C22.5,27,22.3,27,22.2,27z M13.1,19.5l8.1,5V6.6l-8.1,5
		V19.5z"/>
	<path fill="#FFFFFF" d="M12.1,20.8H8c-1.7,0-3-1.2-3-2.7v-5.3c0-1.5,1.4-2.7,3-2.7h4c0.6,0,1,0.4,1,0.9v8.8
		C13.1,20.4,12.6,20.8,12.1,20.8z M8,12c-0.6,0-1,0.4-1,0.9v5.3C7,18.6,7.5,19,8,19h3V12H8z"/>
	<path fill="#FFFFFF" d="M30,18.6"/>
	<path fill="#FFFFFF" d="M30,12.4"/>
</g>
</svg>
